<svg width="100%" height="100%" id="svg" viewBox="0 0 1440 690" xmlns="http://www.w3.org/2000/svg" class="transition duration-300 ease-in-out delay-150"><path d="M 0,700 C 0,700 0,140 0,140 C 23.871450034408518,167.42725311788232 47.742900068817036,194.85450623576463 81,179 C 114.25709993118296,163.14549376423537 156.89984975914032,104.00922817482375 184,92 C 211.10015024085968,79.99077182517625 222.6577008946216,115.10858106494041 250,117 C 277.3422991053784,118.89141893505959 320.46934666237337,87.55644756541464 348,90 C 375.53065333762663,92.44355243458536 387.46491245588504,128.66562867340105 416,139 C 444.53508754411496,149.33437132659895 489.67100351408646,133.78103774098125 520,133 C 550.3289964859135,132.21896225901875 565.8510734877691,146.21022036267402 592,142 C 618.1489265122309,137.78977963732598 654.9247025348374,115.37808080832264 681,111 C 707.0752974651626,106.62191919167736 722.4501163728814,120.27745640403543 752,136 C 781.5498836271186,151.72254359596457 825.2748319736371,169.5120935755356 854,171 C 882.7251680263629,172.4879064244644 896.4505557325698,157.67416929382216 925,160 C 953.5494442674302,162.32583070617784 996.922945096084,181.7912292491757 1026,189 C 1055.077054903916,196.2087707508243 1069.8576638830934,191.16091370947504 1093,176 C 1116.1423361169066,160.83908629052496 1147.646399371542,135.5651159129242 1178,132 C 1208.353600628458,128.4348840870758 1237.5567386307387,146.5786226388281 1266,144 C 1294.4432613692613,141.4213773611719 1322.1266461055031,118.1203935317634 1351,114 C 1379.8733538944969,109.8796064682366 1409.9366769472485,124.9398032341183 1440,140 C 1440,140 1440,700 1440,700 Z" stroke="none" stroke-width="0" fill="#0693e3" fill-opacity="0.265" class="transition-all duration-300 ease-in-out delay-150 path-0" transform="rotate(-180 720 350)"></path><path d="M 0,700 C 0,700 0,280 0,280 C 31.69996334597272,305.1291254659261 63.39992669194544,330.25825093185216 88,327 C 112.60007330805456,323.74174906814784 130.100256578191,292.0961217385174 158,287 C 185.899743421809,281.9038782614826 224.19904699529064,303.35726211407814 253,292 C 281.80095300470936,280.64273788592186 301.1035554406464,236.47482980517015 332,232 C 362.8964445593536,227.52517019482985 405.38673124212363,262.74341866524117 438,282 C 470.61326875787637,301.25658133475883 493.349519590859,304.5514955338652 519,289 C 544.650480409141,273.4485044661348 573.2151903944402,239.05059919929806 598,243 C 622.7848096055598,246.94940080070194 643.7897188313806,289.24610766894233 671,314 C 698.2102811686194,338.75389233105767 731.6259342800375,345.9649701249325 764,329 C 796.3740657199625,312.0350298750675 827.7065440484695,270.89401183132753 852,269 C 876.2934559515305,267.10598816867247 893.5478895260844,304.45898254975737 924,325 C 954.4521104739156,345.54101745024263 998.1018978471927,349.2700579696431 1027,332 C 1055.8981021528073,314.7299420303569 1070.0445190851444,276.4607855716702 1097,250 C 1123.9554809148556,223.53921442832979 1163.720025812229,208.88679974367605 1196,228 C 1228.279974187771,247.11320025632395 1253.0753776659383,299.99201545362564 1275,307 C 1296.9246223340617,314.00798454637436 1315.9784635240176,275.1451384418212 1343,263 C 1370.0215364759824,250.8548615581788 1405.0107682379912,265.4274307790894 1440,280 C 1440,280 1440,700 1440,700 Z" stroke="none" stroke-width="0" fill="#0693e3" fill-opacity="0.4" class="transition-all duration-300 ease-in-out delay-150 path-1" transform="rotate(-180 720 350)"></path><path d="M 0,700 C 0,700 0,420 0,420 C 30.32217697809667,421.0204737744168 60.64435395619334,422.0409475488336 92,411 C 123.35564604380666,399.9590524511664 155.74476115332328,376.85668357908236 182,389 C 208.25523884667672,401.14331642091764 228.37660143051357,448.532318134837 254,445 C 279.6233985694864,441.467681865163 310.74883312462214,387.01404388156976 337,386 C 363.25116687537786,384.98595611843024 384.62806607099753,437.41150633888407 409,463 C 433.37193392900247,488.58849366111593 460.7389025913876,487.33993076289374 495,472 C 529.2610974086124,456.66006923710626 570.4163235634524,427.228770609541 598,429 C 625.5836764365476,430.771229390459 639.5958031548035,463.74498679894225 662,456 C 684.4041968451965,448.25501320105775 715.2004638173335,399.7912821946901 746,375 C 776.7995361826665,350.2087178053099 807.6023415758624,349.08988442229753 842,369 C 876.3976584241376,388.91011557770247 914.3901698792167,429.8491801161199 946,446 C 977.6098301207833,462.1508198838801 1002.8369789072715,453.5133951132232 1030,440 C 1057.1630210927285,426.4866048867768 1086.261914491698,408.09723943098714 1109,393 C 1131.738085508302,377.90276056901286 1148.1153631259367,366.0976471628282 1174,378 C 1199.8846368740633,389.9023528371718 1235.2766330045554,425.5121719177001 1267,437 C 1298.7233669954446,448.4878280822999 1326.7781048558413,435.8536651663714 1355,429 C 1383.2218951441587,422.1463348336286 1411.6109475720793,421.0731674168143 1440,420 C 1440,420 1440,700 1440,700 Z" stroke="none" stroke-width="0" fill="#0693e3" fill-opacity="0.53" class="transition-all duration-300 ease-in-out delay-150 path-2" transform="rotate(-180 720 350)"></path><path d="M 0,700 C 0,700 0,560 0,560 C 30.63770232500506,559.5732919198415 61.27540465001012,559.1465838396831 89,574 C 116.72459534998988,588.8534161603169 141.5360837249646,618.9869565611093 169,611 C 196.4639162750354,603.0130434388907 226.5802604501315,556.9055899158793 258,546 C 289.4197395498685,535.0944100841207 322.14287447450926,559.390683775373 352,560 C 381.85712552549074,560.609316224627 408.84824165183153,537.5316749826288 430,537 C 451.15175834816847,536.4683250173712 466.4641589181647,558.4826162941116 497,571 C 527.5358410818353,583.5173837058884 573.2951226755099,586.5378598409249 605,570 C 636.7048773244901,553.4621401590751 654.3553503797962,517.3659443421888 679,516 C 703.6446496202038,514.6340556578112 735.2834758053053,547.9983627903202 761,550 C 786.7165241946947,552.0016372096798 806.5107463989824,522.6406044965299 835,532 C 863.4892536010176,541.3593955034701 900.6735385987653,589.4392192235598 934,593 C 967.3264614012347,596.5607807764402 996.7950992059564,555.6025186092313 1027,544 C 1057.2049007940436,532.3974813907687 1088.1460645774096,550.1507063395154 1110,551 C 1131.8539354225904,551.8492936604846 1144.6206424844054,535.7946560327072 1172,534 C 1199.3793575155946,532.2053439672928 1241.3713654849678,544.6706695296557 1270,562 C 1298.6286345150322,579.3293304703443 1313.8938955757235,601.5226658486698 1340,602 C 1366.1061044242765,602.4773341513302 1403.0530522121383,581.238667075665 1440,560 C 1440,560 1440,700 1440,700 Z" stroke="none" stroke-width="0" fill="#0693e3" fill-opacity="1" class="transition-all duration-300 ease-in-out delay-150 path-3" transform="rotate(-180 720 350)"></path></svg>